Coordinates
version=1
nRows=22
nColumns=24
inDegrees=yes

Units are S.I. units (second, meters, Newtons, ...)
Angles are in degrees.

endheader
time	pelvis_tilt	pelvis_list	pelvis_rotation	pelvis_tx	pelvis_ty	pelvis_tz	hip_flexion_r	hip_adduction_r	hip_rotation_r	knee_angle_r	ankle_angle_r	subtalar_angle_r	mtp_angle_r	hip_flexion_l	hip_adduction_l	hip_rotation_l	knee_angle_l	ankle_angle_l	subtalar_angle_l	mtp_angle_l	lumbar_extension	lumbar_bending	lumbar_rotation
      0.98316667	     -1.06646816	     -9.48996970	     -4.60079691	     -0.15485960	      0.99481550	      0.32445274	    -11.30812768	     10.50370858	     -2.59118774	     -9.15601894	      6.27163915	     -4.62496385	     -2.63838108	     25.37947865	    -10.85946013	    -13.94425273	     -1.94533420	     -2.37457790	     -5.99920344	     -5.74793435	    -10.54360172	     11.00737626	     13.32954295
      0.98733333	     -0.96316397	     -9.45189280	     -4.73988350	     -0.14893395	      0.99424701	      0.32449656	    -11.46966000	     10.33648225	     -2.55953728	     -9.81821658	      6.50663127	     -4.32232299	     -1.95388612	     25.10325938	    -10.81828753	    -13.74881900	     -1.90187675	     -2.43307331	     -6.12030554	     -5.31754941	    -10.65754247	     10.87059276	     13.46280378
      0.99150000	     -0.97501689	     -9.45250333	     -4.94567983	     -0.14309248	      0.99356796	      0.32477870	    -11.48532419	     10.23015963	     -2.37753101	    -10.52670432	      6.63146722	     -4.16382480	     -1.85499887	     24.99233538	    -10.87271221	    -13.60902955	     -2.03762564	     -2.46899327	     -6.21652229	     -5.25861395	    -10.67938398	     10.77813892	     13.41467587
      0.99566667	     -0.92823337	     -9.36057689	     -5.14910943	     -0.13710939	      0.99305412	      0.32499034	    -11.52915598	      9.99982895	     -2.30762188	    -11.29741806	      6.78214789	     -3.86515398	     -1.65475774	     24.77361094	    -10.81896107	    -13.49220619	     -2.16312892	     -2.59373582	     -6.41636501	     -5.13814739	    -10.71491398	     10.57679946	     13.52563791
      0.99983333	     -0.80359402	     -9.23445152	     -5.28057645	     -0.13109868	      0.99268811	      0.32511758	    -11.64904122	      9.73888376	     -2.28375994	    -12.05708387	      6.90401779	     -3.62995278	     -1.13921521	     24.49701853	    -10.70047865	    -13.31314391	     -2.37471421	     -2.71337368	     -6.69929225	     -4.81804139	    -10.83915386	     10.29470970	     13.75388082
      1.00400000	     -0.76380621	     -9.17444839	     -5.48286359	     -0.12522369	      0.99224199	      0.32547452	    -11.64968035	      9.56410855	     -2.09965071	    -12.87749909	      6.96844623	     -3.48936907	     -1.01871782	     24.35151323	    -10.70698300	    -13.21640479	     -2.73178403	     -2.82489359	     -6.89422812	     -4.74763807	    -10.90422562	     10.11662112	     13.69174390
      1.00816667	     -0.66225012	     -9.00377887	     -5.66272446	     -0.11916149	      0.99197643	      0.32571347	    -11.69299015	      9.24611905	     -2.04878118	    -13.72074686	      6.97157888	     -3.20843985	     -0.71354509	     24.09302753	    -10.57077273	    -13.14767935	     -3.03731027	     -3.10472806	     -7.24373044	     -4.56642652	    -10.98279502	      9.79227031	     13.81123351
      1.01233333	     -0.55778256	     -8.85443807	     -5.83585355	     -0.11316467	      0.99174899	      0.32597146	    -11.71241552	      8.95845628	     -1.95737334	    -14.60626019	      6.95469067	     -3.01597723	     -0.38641444	     23.85141376	    -10.45873430	    -13.05032050	     -3.40850489	     -3.34703961	     -7.60245500	     -4.37384928	    -11.08256012	      9.49918255	     13.86201532
      1.01650000	     -0.38960459	     -8.69431316	     -5.92553510	     -0.10712923	      0.99162548	      0.32609019	    -11.78769474	      8.65921541	     -1.97179141	    -15.47952652	      6.81969933	     -2.88764516	      6.11319710	     23.58027851	    -10.30371374	    -12.94335678	     -3.84635568	     -3.60307048	     -7.96306142	     -0.49575622	    -11.24041896	      9.18997511	     13.81323415
      1.02066667	     -0.33599747	     -8.54536736	     -6.08366874	     -0.10115457	      0.99140266	      0.32639922	    -11.70289390	      8.39349015	     -1.85660610	    -16.43263193	      6.66906728	     -2.82244007	      6.13326783	     23.43814915	    -10.20292271	    -12.88654616	     -4.34090518	     -3.87033172	     -8.34582303	     -0.48221055	    -11.27866669	      8.88841625	     13.81849107
      1.02483333	     -0.25721002	     -8.35884541	     -6.20851461	     -0.09513018	      0.99126204	      0.32660384	    -11.61081569	      8.07755743	     -1.82900216	    -17.42964709	      6.47583159	     -2.66702551	      6.17922675	     23.26742189	    -10.04354908	    -12.83455726	     -4.83016147	     -4.21297435	     -8.75916020	     -0.45872454	    -11.32559389	      8.54593758	     13.82749543
      1.02900000	     -0.17042931	     -8.16739321	     -6.29220830	     -0.08911390	      0.99116650	      0.32671849	    -11.49671195	      7.75872149	     -1.84806336	    -18.46190761	      6.21462834	     -2.51322316	      6.25616387	     23.10202336	     -9.86072690	    -12.75539082	     -5.33164970	     -4.58754374	     -9.20606491	     -0.42351068	    -11.38041168	      8.20401978	     13.81375418
      1.03316667	     -0.08112371	     -7.96779401	     -6.34199275	     -0.08309429	      0.99110585	      0.32677150	    -11.35254752	      7.43446661	     -1.91558813	    -19.53540023	      5.88061759	     -2.38423918	      6.35769157	     22.95250625	     -9.65961799	    -12.67903167	     -5.86293683	     -4.96356915	     -9.64831155	     -0.38191140	    -11.43086416	      7.85399819	     13.75721369
      1.03733333	      0.03505579	     -7.77523500	     -6.20344609	     -0.07710368	      0.99102120	      0.32626839	    -11.19764139	      7.10801200	     -2.25444662	    -20.64979540	      5.51537399	     -2.09102152	      6.85357959	     22.82207988	     -9.35803935	    -12.32172694	     -6.38598246	     -5.40047987	    -10.29754229	     -0.18397734	    -11.50266068	      7.57577545	     13.62120350
      1.04150000	      0.07884003	     -7.56476100	     -6.26758260	     -0.07110728	      0.99100097	      0.32643309	    -10.93102158	      6.78768298	     -2.28598851	    -21.82762977	      5.01312088	     -2.10491395	      6.99191160	     22.73315931	     -9.17742670	    -12.36236471	     -6.95774192	     -5.76534053	    -10.59726178	     -0.13769206	    -11.50527380	      7.20533287	     13.46338227
      1.04566667	      0.11513520	     -7.36946834	     -6.09458343	     -0.06520044	      0.99083263	      0.32581089	    -10.59433341	      6.46064243	     -2.69072860	    -23.09318014	      4.56201618	     -1.81773605	      7.76600884	     22.72431483	     -8.86826498	    -12.00030878	     -7.53503366	     -6.17711301	    -11.28525879	      0.11434320	    -11.49530260	      6.95146139	     13.22984548
      1.04983333	      0.02010401	     -7.15607023	     -5.86627664	     -0.05918937	      0.99048176	      0.32516930	    -10.09173493	      6.14220983	     -3.16133050	    -24.39489608	      3.96949927	     -1.68098325	      9.89120678	     22.88676529	     -8.54494378	    -11.65608274	     -8.15744206	     -6.59007002	    -11.77548620	      0.73920923	    -11.30353272	      6.68621162	     12.80545301
      1.05400000	      0.13440616	     -6.93220867	     -5.89274069	     -0.05328621	      0.99069557	      0.32526417	     -9.77965523	      5.79799382	     -3.23149082	    -25.72668970	      3.21320421	     -1.81467234	     10.02977136	     22.72401076	     -8.34881043	    -11.77434976	     -8.73653368	     -6.82595254	    -11.93874110	      0.77483140	    -11.40419457	      6.29211071	     12.67937045
      1.05816667	      0.15745196	     -6.67051635	     -5.83670087	     -0.04740711	      0.99071306	      0.32502399	     -9.29372330	      5.39599166	     -3.49593181	    -27.19657257	      2.56508328	     -1.77133919	     10.40499547	     22.68122497	     -8.06389146	    -11.77735234	     -9.29136800	     -7.22207318	    -12.32219609	      0.86141718	    -11.38388810	      5.92883046	     12.46095736
      1.06233333	      0.04036622	     -6.47787950	     -5.40191201	     -0.04151862	      0.99030082	      0.32384977	     -8.65445027	      5.08508248	     -4.20694982	    -28.65423614	      1.74627537	     -1.65094832	     11.96253948	     22.93417034	     -7.67540341	    -11.22736430	     -9.98173154	     -7.39337507	    -12.77234521	      1.19542832	    -11.18260391	      5.73744974	     11.91705509
      1.06650000	      0.12207246	     -6.16599678	     -5.40048885	     -0.03566941	      0.99052446	      0.32380396	     -8.15178353	      4.61900514	     -4.38159676	    -30.22481186	      0.91193482	     -1.76574901	     12.27295279	     22.78238929	     -7.38175483	    -11.40701729	    -10.49821895	     -7.63657159	    -12.93803415	      1.25107089	    -11.24044345	      5.27137823	     11.71882819
      1.07066667	      0.09743749	     -5.89133917	     -5.11955584	     -0.02979882	      0.99042059	      0.32298837	     -7.51970819	      4.17917196	     -4.92551670	    -31.80952018	     -0.02341746	     -1.78019549	     19.15266301	     22.83883190	     -6.99094269	    -11.20115853	    -11.09217513	     -7.72296964	    -13.16499811	      2.36445931	    -11.15084878	      4.95427905	     11.16939434
